<?xml version="1.0" standalone="no"?><!DOCTYPE svg PUBLIC "-//W3C//DTD SVG 1.1//EN" "http://www.w3.org/Graphics/SVG/1.1/DTD/svg11.dtd"><svg class="icon" width="200px" height="200.00px" viewBox="0 0 1024 1024" version="1.1" xmlns="http://www.w3.org/2000/svg"><path fill="#515151" d="M313.6 928c-6.4 0-10.666667-2.133333-14.933333-6.4-8.533333-8.533333-8.533333-21.333333 0-29.866667l61.866666-61.866666 12.8 4.266666c134.4 55.466667 290.133333 23.466667 392.533334-78.933333 93.866667-93.866667 128-232.533333 91.733333-360.533333l-187.733333 187.733333-192-51.2L426.666667 341.333333l187.733333-187.733333c-128-38.4-266.666667-4.266667-362.666667 89.6C149.333333 345.6 117.333333 501.333333 172.8 635.733333l4.266667 12.8-61.866667 61.866667c-8.533333 8.533333-21.333333 8.533333-29.866667 0s-8.533333-21.333333 0-29.866667l42.666667-42.666666C74.666667 490.666667 110.933333 326.4 221.866667 213.333333 337.066667 98.133333 509.866667 64 661.333333 125.866667l29.866667 12.8-217.6 215.466666 38.4 145.066667 145.066667 38.4L874.666667 320l12.8 29.866667c59.733333 151.466667 25.6 322.133333-89.6 437.333333-113.066667 113.066667-277.333333 149.333333-426.666667 93.866667l-42.666667 42.666666c-4.266667 4.266667-10.666667 4.266667-14.933333 4.266667z"  /></svg>